<svg width="32" height="32" viewBox="0 0 32 32" fill="none" xmlns="http://www.w3.org/2000/svg">
    <path
        d="M29.2383 15.476C28.969 14.8253 28.3916 14.6693 28.001 14.632V10.6667C28.001 9.196 26.805 8 25.3343 8H17.3343V6.14667C17.741 5.78134 18.001 5.256 18.001 4.66667C18.001 4.13624 17.7903 3.62753 17.4152 3.25246C17.0401 2.87739 16.5314 2.66667 16.001 2.66667C15.4705 2.66667 14.9618 2.87739 14.5868 3.25246C14.2117 3.62753 14.001 4.13624 14.001 4.66667C14.001 5.256 14.261 5.78134 14.6676 6.14667V8H6.66763C5.19696 8 4.00096 9.196 4.00096 10.6667V14.6627L3.89163 14.6707C3.55559 14.6949 3.2412 14.8455 3.01165 15.0921C2.78211 15.3387 2.65443 15.6631 2.6543 16V18.6667C2.6543 19.0203 2.79477 19.3594 3.04482 19.6095C3.29487 19.8595 3.63401 20 3.98763 20H4.00096V26.6667C4.00096 28.1373 5.19696 29.3333 6.66763 29.3333H25.3343C26.805 29.3333 28.001 28.1373 28.001 26.6667V20C28.3546 20 28.6937 19.8595 28.9438 19.6095C29.1938 19.3594 29.3343 19.0203 29.3343 18.6667V16.0827C29.3497 15.8757 29.3168 15.6681 29.2383 15.476ZM6.66763 26.6667V10.6667H25.3343L25.3356 15.9947L25.3343 16V18.6667L25.3356 18.6733L25.337 26.6667H6.66763Z"
        fill="white" />
    <path
        d="M11.334 18.6667C12.4386 18.6667 13.334 17.4728 13.334 16C13.334 14.5272 12.4386 13.3333 11.334 13.3333C10.2294 13.3333 9.33398 14.5272 9.33398 16C9.33398 17.4728 10.2294 18.6667 11.334 18.6667Z"
        fill="white" />
    <path
        d="M20.666 18.6667C21.7706 18.6667 22.666 17.4728 22.666 16C22.666 14.5272 21.7706 13.3333 20.666 13.3333C19.5614 13.3333 18.666 14.5272 18.666 16C18.666 17.4728 19.5614 18.6667 20.666 18.6667Z"
        fill="white" />
    <path d="M10.666 21.3333H21.3327V24H10.666V21.3333Z" fill="white" />
</svg>